<svg xmlns="http://www.w3.org/2000/svg" width="124.773" height="26.42" viewBox="0 0 124.773 26.42"><defs><style>.a{fill:#485363;}.b{fill:#33c783;}</style></defs><g transform="translate(-119.1 -30)"><path class="a" d="M5.264,0V-1.82A4.684,4.684,0,0,0,9.464.336c3.976,0,6.412-3.108,6.412-7.224,0-4-2.212-7.112-6.3-7.112a4.916,4.916,0,0,0-4.284,2.044v-8.316H2.1V0ZM12.6-6.86c0,2.688-1.54,4.312-3.668,4.312-2.072,0-3.668-1.624-3.668-4.312,0-2.716,1.6-4.256,3.668-4.256C11.088-11.116,12.6-9.576,12.6-6.86ZM24.724-2.492c-1.988,0-3.808-1.512-3.808-4.34s1.82-4.284,3.808-4.284c2.016,0,3.808,1.456,3.808,4.284C28.532-3.976,26.74-2.492,24.724-2.492Zm0-11.564a6.932,6.932,0,0,0-7.056,7.224A6.939,6.939,0,0,0,24.724.42a6.945,6.945,0,0,0,7.084-7.252A6.938,6.938,0,0,0,24.724-14.056ZM40.656-2.492c-1.988,0-3.808-1.512-3.808-4.34s1.82-4.284,3.808-4.284c2.016,0,3.808,1.456,3.808,4.284C44.464-3.976,42.672-2.492,40.656-2.492Zm0-11.564A6.932,6.932,0,0,0,33.6-6.832,6.939,6.939,0,0,0,40.656.42,6.945,6.945,0,0,0,47.74-6.832,6.938,6.938,0,0,0,40.656-14.056Zm22.708.42H59.052L53.816-8.12V-20.272H50.6V0h3.22V-3.808L55.5-5.572,59.5,0h3.976L57.764-7.868ZM68.8,0V-20.272H65.548V0Zm7.14,0V-13.636h-3.22V0ZM72.212-18.424a2.1,2.1,0,0,0,2.1,2.1,2.1,2.1,0,0,0,2.128-2.1,2.127,2.127,0,0,0-2.128-2.128A2.121,2.121,0,0,0,72.212-18.424ZM83.1-7.868c0-1.792.98-3.22,2.828-3.22,2.044,0,2.8,1.344,2.8,3.024V0H91.98V-8.624c0-3-1.6-5.4-4.928-5.4a4.528,4.528,0,0,0-4.032,2.212v-1.82H79.856V0H83.1ZM98.868,0V-13.636h-3.22V0ZM95.144-18.424a2.1,2.1,0,0,0,2.1,2.1,2.1,2.1,0,0,0,2.128-2.1,2.127,2.127,0,0,0-2.128-2.128A2.121,2.121,0,0,0,95.144-18.424Zm20.412,4.788h-4.312L106.008-8.12V-20.272h-3.22V0h3.22V-3.808l1.68-1.764,4,5.572h3.976l-5.712-7.868Z" transform="translate(117 56)"/><path class="b" d="M193.684,4.926H189.8V1.047A1.079,1.079,0,0,0,188.758,0h-.985a1.079,1.079,0,0,0-1.047,1.047V4.926h-3.879A1.079,1.079,0,0,0,181.8,5.973v.985A1.079,1.079,0,0,0,182.847,8h3.879v3.879a1.079,1.079,0,0,0,1.047,1.047h.985a1.079,1.079,0,0,0,1.047-1.047V8h3.879a1.079,1.079,0,0,0,1.047-1.047V5.973A1.079,1.079,0,0,0,193.684,4.926Z" transform="translate(49.143 30)"/></g></svg>