<?xml version="1.0" standalone="no"?>
<!DOCTYPE svg PUBLIC "-//W3C//DTD SVG 20010904//EN"
 "http://www.w3.org/TR/2001/REC-SVG-20010904/DTD/svg10.dtd">
<svg version="1.0" xmlns="http://www.w3.org/2000/svg"
 width="334.000000pt" height="334.000000pt" viewBox="0 0 334.000000 334.000000"
 preserveAspectRatio="xMidYMid meet">
<metadata>
Created by potrace 1.14, written by Peter Selinger 2001-2017
</metadata>
<g transform="translate(0.000000,334.000000) scale(0.100000,-0.100000)"
fill="#000000" stroke="none">
<path d="M1454 3324 c-55 -20 -118 -75 -152 -132 l-27 -47 -3 -537 -3 -538
-518 0 c-575 0 -572 0 -650 -66 -23 -20 -53 -57 -69 -82 l-27 -47 0 -200 0
-200 29 -52 c31 -55 85 -105 141 -129 28 -12 125 -14 565 -14 l530 0 0 -517
c0 -322 4 -532 10 -555 17 -59 71 -130 124 -163 l49 -30 198 -3 c177 -3 203
-1 241 16 59 26 103 65 136 121 l27 46 5 540 5 540 540 5 c532 5 541 5 581 27
49 26 100 82 125 137 16 35 19 68 19 228 l0 186 -33 64 c-35 68 -95 118 -165
138 -23 6 -233 10 -554 10 l-518 0 0 528 c0 508 -1 529 -21 572 -25 55 -80
114 -134 143 -36 20 -57 22 -225 24 -144 2 -194 -1 -226 -13z"/>
</g>
</svg>
